<svg xmlns="http://www.w3.org/2000/svg" version="1.1" xmlns:xlink="http://www.w3.org/1999/xlink" xmlns:svgjs="http://svgjs.com/svgjs" width="512" height="512" x="0" y="0" viewBox="0 0 512 512" style="enable-background:new 0 0 512 512" xml:space="preserve"><g><path xmlns="http://www.w3.org/2000/svg" d="m229.14 150.14h24.41v24.41c0 1.933 1.567 3.5 3.5 3.5s3.5-1.567 3.5-3.5v-24.41h24.42c1.933 0 3.5-1.567 3.5-3.5s-1.567-3.5-3.5-3.5h-24.46v-24.38c0-1.933-1.567-3.5-3.5-3.5s-3.5 1.567-3.5 3.5v24.42h-24.37c-1.933 0-3.5 1.567-3.5 3.5s1.567 3.5 3.5 3.5z" fill="#000000" data-original="#000000" class=""/><path xmlns="http://www.w3.org/2000/svg" d="m138.12 231.54h-28.59c-1.922 0-3.48 1.558-3.48 3.48v28.59c0 1.922 1.558 3.48 3.48 3.48h28.59c1.922 0 3.48-1.558 3.48-3.48v-28.61c-.011-1.914-1.566-3.46-3.48-3.46zm-3.48 28.59h-21.64v-21.63h21.63z" fill="#000000" data-original="#000000" class=""/><path xmlns="http://www.w3.org/2000/svg" d="m404.81 231.54h-28.59c-1.922 0-3.48 1.558-3.48 3.48v28.59c0 1.922 1.558 3.48 3.48 3.48h28.59c1.922 0 3.48-1.558 3.48-3.48v-28.61c-.011-1.914-1.566-3.46-3.48-3.46zm-3.48 28.59h-21.63v-21.63h21.63z" fill="#000000" data-original="#000000" class=""/><path xmlns="http://www.w3.org/2000/svg" d="m138.12 288.51h-28.59c-1.922 0-3.48 1.558-3.48 3.48v28.59c0 1.922 1.558 3.48 3.48 3.48h28.59c1.922 0 3.48-1.558 3.48-3.48v-28.58c.006-1.922-1.548-3.484-3.47-3.49-.003 0-.007 0-.01 0zm-3.48 28.59h-21.64v-21.63h21.63z" fill="#000000" data-original="#000000" class=""/><path xmlns="http://www.w3.org/2000/svg" d="m404.81 288.51h-28.59c-1.922 0-3.48 1.558-3.48 3.48v28.59c-.006 1.916 1.544 3.474 3.46 3.48h.02 28.59c1.922 0 3.48-1.558 3.48-3.48v-28.58c.006-1.922-1.548-3.484-3.47-3.49-.003 0-.007 0-.01 0zm-3.48 28.59h-21.63v-21.63h21.63z" fill="#000000" data-original="#000000" class=""/><path xmlns="http://www.w3.org/2000/svg" d="m324.27 232.3h-28.6c-1.922 0-3.48 1.558-3.48 3.48v28.59c0 1.922 1.558 3.48 3.48 3.48h28.6c1.922 0 3.48-1.558 3.48-3.48v-28.59c0-1.922-1.558-3.48-3.48-3.48zm-3.48 28.59h-21.64v-21.63h21.64z" fill="#000000" data-original="#000000" class=""/><path xmlns="http://www.w3.org/2000/svg" d="m324.27 289.27h-28.6c-1.922 0-3.48 1.558-3.48 3.48v28.59c0 1.922 1.558 3.48 3.48 3.48h28.6c1.922 0 3.48-1.558 3.48-3.48v-28.59c0-1.922-1.558-3.48-3.48-3.48zm-3.48 28.59h-21.64v-21.63h21.64z" fill="#000000" data-original="#000000" class=""/><path xmlns="http://www.w3.org/2000/svg" d="m271.33 232.3h-28.59c-1.922 0-3.48 1.558-3.48 3.48v28.59c0 1.922 1.558 3.48 3.48 3.48h28.59c1.922 0 3.48-1.558 3.48-3.48v-28.59c0-1.922-1.558-3.48-3.48-3.48zm-3.48 28.59h-21.63v-21.63h21.63z" fill="#000000" data-original="#000000" class=""/><path xmlns="http://www.w3.org/2000/svg" d="m271.33 289.27h-28.59c-1.922 0-3.48 1.558-3.48 3.48v28.59c0 1.922 1.558 3.48 3.48 3.48h28.59c1.922 0 3.48-1.558 3.48-3.48v-28.59c0-1.922-1.558-3.48-3.48-3.48zm-3.48 28.59h-21.63v-21.63h21.63z" fill="#000000" data-original="#000000" class=""/><path xmlns="http://www.w3.org/2000/svg" d="m218.39 232.3h-28.59c-1.922 0-3.48 1.558-3.48 3.48v28.59c0 1.922 1.558 3.48 3.48 3.48h28.59c1.922 0 3.48-1.558 3.48-3.48v-28.59c0-1.922-1.558-3.48-3.48-3.48zm-3.48 28.59h-21.63v-21.63h21.63z" fill="#000000" data-original="#000000" class=""/><path xmlns="http://www.w3.org/2000/svg" d="m218.39 289.27h-28.59c-1.922 0-3.48 1.558-3.48 3.48v28.59c0 1.922 1.558 3.48 3.48 3.48h28.59c1.922 0 3.48-1.558 3.48-3.48v-28.59c0-1.922-1.558-3.48-3.48-3.48zm-3.48 28.59h-21.63v-21.63h21.63z" fill="#000000" data-original="#000000" class=""/><path xmlns="http://www.w3.org/2000/svg" d="m138.12 345.48h-28.59c-1.922 0-3.48 1.558-3.48 3.48v28.59c0 1.922 1.558 3.48 3.48 3.48h28.59c1.922 0 3.48-1.558 3.48-3.48v-28.55c.022-1.922-1.518-3.498-3.44-3.52-.013 0-.027 0-.04 0zm-3.48 28.59h-21.64v-21.63h21.63z" fill="#000000" data-original="#000000" class=""/><path xmlns="http://www.w3.org/2000/svg" d="m404.81 345.48h-28.59c-1.922 0-3.48 1.558-3.48 3.48v28.59c-.006 1.916 1.544 3.474 3.46 3.48h.02 28.59c1.922 0 3.48-1.558 3.48-3.48v-28.55c.022-1.922-1.518-3.498-3.44-3.52-.013 0-.027 0-.04 0zm-3.48 28.59h-21.63v-21.63h21.63z" fill="#000000" data-original="#000000" class=""/><path xmlns="http://www.w3.org/2000/svg" d="m467 415.42h-28.71v-217.81h12.8c1.922 0 3.48-1.558 3.48-3.48v-30c0-1.922-1.558-3.48-3.48-3.48h-101.54v-9.11c-.011-9.252-7.508-16.749-16.76-16.76h-18.73v-41.68c0-1.922-1.558-3.48-3.48-3.48h-107.09c-1.922-.006-3.484 1.548-3.49 3.47v.01 41.65h-18.72c-9.252.011-16.749 7.508-16.76 16.76v9.11h-101.27c-1.922 0-3.48 1.558-3.48 3.48v30c0 1.922 1.558 3.48 3.48 3.48h12.75v217.84h-31c-1.933 0-3.5 1.567-3.5 3.5s1.567 3.5 3.5 3.5h422c1.933 0 3.5-1.567 3.5-3.5s-1.567-3.5-3.5-3.5zm-117.31-225.22v-22.62h97.92v23.07zm-142.69-93.62h100.1v100.14h-100.1zm-140.27 94.07.03-23.07h97.79v22.62zm16.3 6.93h81.52v217.84h-81.55zm148.15 217.84v-63h51.71v63zm58.67 0v-66.42c0-1.922-1.558-3.48-3.48-3.48h-58.67c-1.922 0-3.48 1.558-3.48 3.48v66.46h-52.61v-251.36c-.023-.224-.067-.444-.13-.66v-11.93c0-5.412 4.388-9.8 9.8-9.8h18.72v58.49c0 1.922 1.558 3.48 3.48 3.48h107.1c1.922 0 3.48-1.558 3.48-3.48v-58.49h18.73c5.41.006 9.794 4.39 9.8 9.8v263.91zm59.84 0v-217.81h81.64v217.81z" fill="#000000" data-original="#000000" class=""/></g></svg>