<svg xmlns="http://www.w3.org/2000/svg" version="1.1" xmlns:xlink="http://www.w3.org/1999/xlink" xmlns:svgjs="http://svgjs.com/svgjs" width="512" height="512" x="0" y="0" viewBox="0 0 96 96" style="enable-background:new 0 0 512 512" xml:space="preserve"><g><g xmlns="http://www.w3.org/2000/svg" id="Medical_Team" data-name="Medical Team"><path d="m93.75 69.91a14.81 14.81 0 0 0 -6.82-10.09 14.53 14.53 0 0 0 -7-2.48v-2.47a11.24 11.24 0 0 0 6.12-8.87h.27a3.21 3.21 0 1 0 -.21-6.41c0-3.1 0-4.83 0-6.9a8.06 8.06 0 0 0 -8-8h-6.47a8.06 8.06 0 0 0 -8 8v6.9a3.21 3.21 0 1 0 -.22 6.41h.27a11.2 11.2 0 0 0 6.1 8.91v2.47a15.08 15.08 0 0 0 -2.57.45c-.27.08-.22.1-.23 0a15.59 15.59 0 0 0 -13.8-12.6v-2.49a11.26 11.26 0 0 0 6.1-8.91h.27a3.2 3.2 0 0 0 2.13-5.58v-11.5a4.86 4.86 0 0 0 -4.85-4.85h-.61a4.42 4.42 0 0 0 -4.06 2.7 7.3 7.3 0 0 0 -5.68-2.7h-10.85a1 1 0 0 0 -1 1v12.63a3.88 3.88 0 0 0 .69 2.2 3.19 3.19 0 0 0 1.33 6.1h.26a11.25 11.25 0 0 0 6.08 8.91v2.46a14.78 14.78 0 0 0 -6.44 2.14 14.87 14.87 0 0 0 -7.09 9.24 13.29 13.29 0 0 0 -1.45-.31c-.17 0-.12 0-.12-2.3a11.23 11.23 0 0 0 4.62-8h.28a3.19 3.19 0 0 0 .89-6.26 2.73 2.73 0 0 0 1.08-2.19c0-1.29-1.29-2.88-2.18-3.72v-3a8.06 8.06 0 0 0 -8-8h-6.4a8.06 8.06 0 0 0 -8 8.05v3a8.84 8.84 0 0 0 -1.88 2.5 2.68 2.68 0 0 0 .8 3.4 3.19 3.19 0 0 0 .82 6.25h.28a11.23 11.23 0 0 0 4.62 8c0 2.3.05 2.27-.12 2.3a16.62 16.62 0 0 0 -13.95 15.29l-.76 11.41a1 1 0 0 0 1 1.06h94a1 1 0 0 0 1-1.16zm-16.58-8.64-2.3 8.3c-2.47-8.89-2.34-8.32-2.24-8.28a6.09 6.09 0 0 0 4.54-.02zm-4.08-5.33a10.14 10.14 0 0 0 3.56 0c.42-.07 1.2-.24 1.3-.27v2.64a4 4 0 0 1 -6.08 0c-.09-.1 0 .12 0-2.64.02.03.8.2 1.22.27zm-7.49-20.23v-1.1h18.48v1.1zm21.92 7a1.2 1.2 0 0 1 -1.2 1.2h-.21v-2.36h.21a1.21 1.21 0 0 1 1.2 1.21zm-15.88-16.11h6.36a6.06 6.06 0 0 1 6 6h-18.4a6.05 6.05 0 0 1 6.04-6zm-8 14.95v2.41h-.21a1.21 1.21 0 1 1 .17-2.41zm2 3.41v-7.25h18.44v7.24a9.25 9.25 0 0 1 -12.92 8.38 9.25 9.25 0 0 1 -5.53-8.33zm4.36 14.36 3.92 14.13v8.64h-2.59l-4-22.25a12.61 12.61 0 0 1 2.67-.52zm-23.67-15.51a10.38 10.38 0 0 0 3.56 0c.42-.07 1.2-.24 1.3-.27v2.58a4 4 0 0 1 -6.16 0v-2.58c.1.03.88.2 1.3.27zm-.52 5.33a6.05 6.05 0 0 0 4.6 0l-2.3 8.31zm14.58-17.65a1.28 1.28 0 0 1 -1 .34v-2.41h.21a1.2 1.2 0 0 1 .79 2.07zm-6.56-15.19a2.41 2.41 0 0 1 2.4-2.4h.61a2.86 2.86 0 0 1 2.85 2.85v10.67h-.36a11.26 11.26 0 0 0 -5.5-9.08zm-17.19-2.4h9.85a5.33 5.33 0 0 1 5 3.39 11.33 11.33 0 0 0 -4.33-.46c-1.13.09-.27.28-1.44-.89a1 1 0 0 0 -1.42 0 1 1 0 0 0 0 1.41 4.7 4.7 0 0 1 .63 5.83l-3.25-3.18-1.38-1.41a1 1 0 0 0 -1.42 0 1 1 0 0 0 0 1.41l.7.7a11.29 11.29 0 0 0 -2.65 5.85c-.4-.65-.29.08-.29-12.65zm-1.19 16.72a1.23 1.23 0 0 1 1.21-1.2h.2v2.41h-.2a1.21 1.21 0 0 1 -1.21-1.21zm3.41 2.21v-4.49a9.19 9.19 0 0 1 2.14-6.23l3.27 3.27a1 1 0 0 0 1.42 0 6.75 6.75 0 0 0 1.68-6.58 9.27 9.27 0 0 1 10 9.62v4.4a9.25 9.25 0 0 1 -18.49 0zm-12.69 41.29a1.93 1.93 0 0 1 .69-3.67c-.2 1.06-.06.34-.69 3.67zm2.92-15.59-1.86 9.94a3.92 3.92 0 0 0 -1.43 7.64l-1.12 6h-2.3v-19.88l1.14-.69a1 1 0 0 0 .48-.86v-4.91a13.08 13.08 0 0 0 1.93-.64v1a2.14 2.14 0 0 0 1.8 2.13c.47.06.93.16 1.36.27zm-7.29-2.45h.2v4l-.62.38-.62-.38v-4h.24a5.86 5.86 0 0 0 .8 0zm10.82-12.08v-2.45h.21a1.21 1.21 0 1 1 -.21 2.45zm-20.48-13.21a6.06 6.06 0 0 1 6-6.05h6.4a6.06 6.06 0 0 1 6 6.05v1.55c-2.85-1.56-6.16-1.78-9.24-1.78s-6.41.23-9.24 1.78zm-2.14 6.41c2-4 6.86-4.64 11.34-4.64s9.29.58 11.34 4.65a.67.67 0 0 1 -.48 1 .6.6 0 0 1 -.3-.07c-.65-.45-1-4.15-10.56-4.15s-9.89 3.68-10.56 4.15a.6.6 0 0 1 -.3.07.68.68 0 0 1 -.48-1.01zm-1.27 5.56a1.21 1.21 0 0 1 1.2-1.21h.21v2.45h-.21a1.2 1.2 0 0 1 -1.2-1.24zm3.41 2.24v-5.37c1.15-1 .79-3.66 9.24-3.66s8.09 2.71 9.24 3.66v5.37a9.24 9.24 0 0 1 -18.48 0zm-8.14 21.74a14.61 14.61 0 0 1 11-8.51 2.14 2.14 0 0 0 1.8-2.13v-1a12.28 12.28 0 0 0 1.93.64v4.91a1 1 0 0 0 .48.86l1.14.69v19.89h-10.79l.44-7.93a1 1 0 0 0 -1-1 1 1 0 0 0 -1 1l-.43 8h-5.5c.71-10.81.52-12.25 1.93-15.42zm58.49 15.35-2.82-17.67a1 1 0 0 0 -2 .31l2.77 17.36h-24.56c2.62-17.35 2.34-15.46 2.63-17.36a1 1 0 1 0 -2-.3l-2.65 17.66h-7.15c6-32.17 4.18-22 4.51-24a12.81 12.81 0 0 1 1.39-3.94 13 13 0 0 1 5-5.07 12.78 12.78 0 0 1 2.59-1.22 9.87 9.87 0 0 0 -2 5.16 3.31 3.31 0 1 0 2 0 7.94 7.94 0 0 1 3-5.45l3.85 13.88a1 1 0 0 0 1.92 0l3.85-13.88a7.84 7.84 0 0 1 3 5.26 2.39 2.39 0 0 0 -2.43 2.39v2.12a1 1 0 0 0 2 0v-2.13a.39.39 0 0 1 .39-.39h2.2a.39.39 0 0 1 .39.39v2.12a1 1 0 0 0 2 0v-2.12a2.4 2.4 0 0 0 -2.56-2.39 9.84 9.84 0 0 0 -2-5 12.38 12.38 0 0 1 2.6 1.23 13 13 0 0 1 5 5.06 12.79 12.79 0 0 1 1.42 4l4.28 24zm-23.29-27.27a1.32 1.32 0 1 1 -1.32 1.32 1.33 1.33 0 0 1 1.32-1.32zm48.58 27.27-1.2-6.84a1 1 0 0 0 -2 .34l1.14 6.5h-9.85v-8.64l3.92-14.13a13.77 13.77 0 0 1 12 10.93l2 11.84z" fill="#000000" data-original="#000000"/><path d="m78.22 50.08a1 1 0 1 0 -1.32-1.51 3.18 3.18 0 0 1 -4.07 0 1 1 0 1 0 -1.31 1.5 5.11 5.11 0 0 0 6.7.01z" fill="#000000" data-original="#000000"/><path d="m78.93 41.31a1 1 0 0 0 -1 1v.45a1 1 0 0 0 2 0v-.45a1 1 0 0 0 -1-1z" fill="#000000" data-original="#000000"/><path d="m77.89 40.86h2.11a1 1 0 0 0 0-2h-2.11a1 1 0 0 0 0 2z" fill="#000000" data-original="#000000"/><path d="m71.81 42.76v-.45a1 1 0 0 0 -2 0v.45a1 1 0 0 0 2 0z" fill="#000000" data-original="#000000"/><path d="m72.85 39.86a1 1 0 0 0 -1-1h-2.07a1 1 0 0 0 0 2h2.07a1 1 0 0 0 1-1z" fill="#000000" data-original="#000000"/><path d="m76.08 28.65h-.24v-.24a1 1 0 1 0 -2 0v.24h-.24a1 1 0 0 0 0 2h.24v.23a1 1 0 0 0 2 0v-.23h.24a1 1 0 0 0 0-2z" fill="#000000" data-original="#000000"/><path d="m20.14 28.7h.24v.24a1 1 0 0 0 2 0v-.24h.24a1 1 0 0 0 0-2h-.24v-.24a1 1 0 0 0 -2 0v.24h-.24a1 1 0 0 0 0 2z" fill="#000000" data-original="#000000"/><path d="m17.93 48.66a1 1 0 0 0 .1 1.41 5.11 5.11 0 0 0 6.7 0 1 1 0 0 0 .1-1.41 1 1 0 0 0 -1.41-.1 3.2 3.2 0 0 1 -4.08 0 1 1 0 0 0 -1.41.1z" fill="#000000" data-original="#000000"/><path d="m25.44 41.31a1 1 0 0 0 -1 1v.45a1 1 0 0 0 2 0v-.45a1 1 0 0 0 -1-1z" fill="#000000" data-original="#000000"/><path d="m24.4 40.86h2.07a1 1 0 0 0 0-2h-2.07a1 1 0 1 0 0 2z" fill="#000000" data-original="#000000"/><path d="m18.32 42.76v-.45a1 1 0 0 0 -2 0v.45a1 1 0 0 0 2 0z" fill="#000000" data-original="#000000"/><path d="m19.36 39.86a1 1 0 0 0 -1-1h-2.07a1 1 0 0 0 0 2h2.07a1 1 0 0 0 1-1z" fill="#000000" data-original="#000000"/><path d="m51.45 38a1 1 0 1 0 -1.31-1.51 3.17 3.17 0 0 1 -4.07 0 1 1 0 0 0 -1.31 1.51 5.1 5.1 0 0 0 6.69 0z" fill="#000000" data-original="#000000"/><path d="m52.16 29.17a1 1 0 0 0 -1 1v.46a1 1 0 0 0 2 0v-.46a1 1 0 0 0 -1-1z" fill="#000000" data-original="#000000"/><path d="m51.13 28.73h2.07a1 1 0 0 0 0-2h-2.07a1 1 0 0 0 0 2z" fill="#000000" data-original="#000000"/><path d="m45.05 30.63v-.46a1 1 0 0 0 -2 0v.46a1 1 0 0 0 2 0z" fill="#000000" data-original="#000000"/><path d="m46.08 27.73a1 1 0 0 0 -1-1h-2.08a1 1 0 0 0 0 2h2.06a1 1 0 0 0 1.02-1z" fill="#000000" data-original="#000000"/></g></g></svg>