<svg xmlns="http://www.w3.org/2000/svg" version="1.1" xmlns:xlink="http://www.w3.org/1999/xlink" xmlns:svgjs="http://svgjs.com/svgjs" width="512" height="512" x="0" y="0" viewBox="0 0 125 125" style="enable-background:new 0 0 512 512" xml:space="preserve"><g><path xmlns="http://www.w3.org/2000/svg" d="m105.182 97.82h-85.364a10.477 10.477 0 0 1 -10.465-10.466v-52.72a10.477 10.477 0 0 1 10.465-10.466h85.364a10.477 10.477 0 0 1 10.465 10.466v52.72a10.477 10.477 0 0 1 -10.465 10.466zm-85.364-69.652a6.472 6.472 0 0 0 -6.465 6.466v52.72a6.472 6.472 0 0 0 6.465 6.466h85.364a6.472 6.472 0 0 0 6.465-6.466v-52.72a6.472 6.472 0 0 0 -6.465-6.466z" fill="#000000" data-original="#000000"/><path xmlns="http://www.w3.org/2000/svg" d="m62.5 72.764a2 2 0 0 1 -1.324-.5l-48.2-42.548 2.647-3 46.877 41.384 46.879-41.379 2.647 3-48.2 42.548a1.994 1.994 0 0 1 -1.326.495z" fill="#000000" data-original="#000000"/><path xmlns="http://www.w3.org/2000/svg" d="m5.012 72.393h49.061v4h-49.061z" transform="matrix(.66 -.752 .752 .66 -45.859 47.529)" fill="#000000" data-original="#000000"/><path xmlns="http://www.w3.org/2000/svg" d="m93.454 49.862h4v49.062h-4z" transform="matrix(.752 -.66 .66 .752 -25.361 81.43)" fill="#000000" data-original="#000000"/></g></svg>