<svg xmlns="http://www.w3.org/2000/svg" version="1.1" xmlns:xlink="http://www.w3.org/1999/xlink" xmlns:svgjs="http://svgjs.com/svgjs" width="512" height="512" x="0" y="0" viewBox="0 0 512 512" style="enable-background:new 0 0 512 512" xml:space="preserve"><g><g xmlns="http://www.w3.org/2000/svg"><path d="m191.733 287.066h160.667c34.908 0 63.2-28.241 63.2-63.2v-96.399c0-34.902-28.237-63.2-63.2-63.2h-17.133v-49.267c0-8.284-6.716-15-15-15h-96.4c-8.284 0-15 6.716-15 15v49.267h-17.133c-34.901 0-63.2 28.237-63.2 63.2v96.399c-.001 34.907 28.241 63.2 63.199 63.2zm47.134-257.066h66.4v34.267h-66.4zm-80.334 97.467c0-18.361 14.861-33.2 33.2-33.2h160.667c18.361 0 33.2 14.861 33.2 33.2v96.399c0 18.361-14.859 33.2-33.2 33.2h-160.667c-18.361 0-33.2-14.858-33.2-33.2z" fill="#000000" data-original="#000000"/><path d="m239.933 190.667h17.134v17.133c0 8.284 6.716 15 15 15s15-6.716 15-15v-17.133h17.133c8.284 0 15-6.716 15-15s-6.716-15-15-15h-17.133v-17.134c0-8.284-6.716-15-15-15s-15 6.716-15 15v17.134h-17.134c-8.284 0-15 6.716-15 15s6.716 15 15 15z" fill="#000000" data-original="#000000"/><path d="m363.372 329.287-20.243 20.245c-7.305-16.589-23.903-28.198-43.162-28.198h-105.004c-40.895 0-57.81 33.294-61.42 48.2h-23.21v-17.134c0-8.284-6.716-15-15-15h-80.333c-8.284 0-15 6.716-15 15v144.6c0 8.284 6.716 15 15 15h80.333c8.284 0 15-6.716 15-15v-17.133h206.844c18.652 0 36.193-7.266 49.393-20.461l108.903-108.907c5.858-5.857 5.853-15.361 0-21.213-30.906-30.905-81.193-30.905-112.101.001zm-283.039 152.713h-50.333v-114.6h50.333zm265.026-43.809c-7.532 7.529-17.541 11.675-28.182 11.675h-206.844v-50.333h36.43c8.284 0 15-6.716 15-15 0-18.348 14.837-33.2 33.2-33.2h105.004c9.447 0 17.133 7.686 17.133 17.133 0 14.014-12.927 17.063-16.836 17.131-.008 0-.017 0-.021 0-.092.001-.184.002-.276.002h-54.855c-8.284 0-15 6.716-15 15s6.716 15 15 15h54.861c12.576 0 24.407-4.899 33.32-13.803l51.293-51.298c15.512-15.511 38.88-18.498 57.417-8.956z" fill="#000000" data-original="#000000"/><path d="m471.572 124.816 32.133-16.067c7.41-3.705 10.413-12.715 6.708-20.124-3.706-7.409-12.714-10.414-20.125-6.708l-32.133 16.067c-7.41 3.705-10.413 12.715-6.708 20.124 3.728 7.456 12.763 10.391 20.125 6.708z" fill="#000000" data-original="#000000"/><path d="m503.705 242.584-32.133-16.066c-7.409-3.706-16.42-.701-20.125 6.708s-.701 16.42 6.708 20.124l32.133 16.066c7.384 3.694 16.408.725 20.125-6.708 3.705-7.409.701-16.42-6.708-20.124z" fill="#000000" data-original="#000000"/><path d="m40.428 108.749 32.133 16.067c7.362 3.683 16.397.748 20.125-6.708 3.705-7.409.702-16.419-6.708-20.124l-32.133-16.067c-7.411-3.706-16.419-.701-20.125 6.708-3.704 7.409-.702 16.419 6.708 20.124z" fill="#000000" data-original="#000000"/><path d="m72.562 226.518-32.133 16.066c-7.41 3.704-10.413 12.715-6.708 20.124 3.717 7.433 12.74 10.402 20.125 6.708l32.133-16.066c7.41-3.704 10.413-12.715 6.708-20.124s-12.716-10.414-20.125-6.708z" fill="#000000" data-original="#000000"/></g></g></svg>